<svg id="Layer_1" data-name="Layer 1" xmlns="http://www.w3.org/2000/svg" viewBox="0 0 795.42 664"><defs><style>.cls-1{fill:#4a9bff;}.cls-2{fill:#f1f1f1;}.cls-3{fill:#39b44a;}.cls-4{fill:#88ea88;opacity:0.4;}</style></defs><g id="Notepad"><rect class="cls-1" width="664" height="664" rx="70.28"/><circle class="cls-2" cx="86.63" cy="219" r="15"/><circle class="cls-2" cx="86.63" cy="290" r="15"/><circle class="cls-2" cx="86.63" cy="361" r="15"/><rect class="cls-2" x="146.63" y="203" width="273" height="27" rx="10.28"/><rect class="cls-2" x="146.63" y="276" width="375" height="27" rx="10.75"/><rect class="cls-2" x="150.63" y="348" width="441" height="27" rx="10.82"/></g><g id="Tick"><rect class="cls-3" x="539.68" y="682.87" width="422.14" height="94.75" rx="25.87" transform="translate(-423.84 472.75) rotate(-45)"/><rect class="cls-3" x="490.98" y="674.63" width="94.05" height="152.74" rx="26.95" transform="translate(-500.83 328.39) rotate(-45)"/><path class="cls-4" d="M537.09,803.59S469,726.88,501,689h0L476.47,713.3s-15.06,16,.24,32.68C490.14,760.6,537.09,803.59,537.09,803.59Z" transform="translate(-127.37 -272)"/><path class="cls-4" d="M659,877S932.78,623.06,879,569l29.16,27.85s17.42,17.67-3.46,38.3S659,877,659,877Z" transform="translate(-127.37 -272)"/></g></svg>